<svg version="1.1" xmlns="http://www.w3.org/2000/svg" viewBox="0 0 1625.66796875 1182.0244140625" width="1625.66796875" height="1182.0244140625">
  <!-- svg-source:excalidraw -->
  
  <defs>
    <style class="style-fonts">
      @font-face {
        font-family: "Virgil";
        src: url("https://excalidraw.com/Virgil.woff2");
      }
      @font-face {
        font-family: "Cascadia";
        src: url("https://excalidraw.com/Cascadia.woff2");
      }
    </style>
    
  </defs>
  <g transform="translate(182.224609375 33.177734375) rotate(0 26.989974975585938 12.5)"><text x="0" y="0" font-family="Virgil, Segoe UI Emoji" font-size="20px" fill="#1e1e1e" text-anchor="start" style="white-space: pre;" direction="ltr" dominant-baseline="text-before-edge">Model</text></g><g transform="translate(1258.4453125 10) rotate(0 18.91998291015625 12.5)"><text x="0" y="0" font-family="Virgil, Segoe UI Emoji" font-size="20px" fill="#1e1e1e" text-anchor="start" style="white-space: pre;" direction="ltr" dominant-baseline="text-before-edge">View</text></g><g transform="translate(599.04296875 454.22265625) rotate(0 47.169952392578125 12.5)"><text x="0" y="0" font-family="Virgil, Segoe UI Emoji" font-size="20px" fill="#1e1e1e" text-anchor="start" style="white-space: pre;" direction="ltr" dominant-baseline="text-before-edge">Controller</text></g><g stroke-linecap="round" transform="translate(433.8671875 498.71484375) rotate(0 225.599609375 147.712890625)"><path d="M32 0 M32 0 C144.65 -0.22, 255.88 0.02, 419.2 0 M32 0 C121.91 -2.21, 210.59 -1.81, 419.2 0 M419.2 0 C439.9 -0.22, 453.03 11.76, 451.2 32 M419.2 0 C442.64 1.64, 452.29 8.72, 451.2 32 M451.2 32 C451.65 110.55, 449.83 192.45, 451.2 263.43 M451.2 32 C451.69 110.79, 451.03 190.87, 451.2 263.43 M451.2 263.43 C450.33 283.62, 440.41 296.3, 419.2 295.43 M451.2 263.43 C452.95 285.21, 438.34 293.13, 419.2 295.43 M419.2 295.43 C280.65 293.99, 141.23 293.07, 32 295.43 M419.2 295.43 C279.3 295.44, 139.32 295.17, 32 295.43 M32 295.43 C12.45 296.58, -0.12 282.89, 0 263.43 M32 295.43 C11 296.41, -0.79 284.99, 0 263.43 M0 263.43 C0.4 215.86, 0.25 164.21, 0 32 M0 263.43 C1.49 199.01, 0.01 135.88, 0 32 M0 32 C1.77 9.77, 11.39 -1.86, 32 0 M0 32 C-0.69 8.4, 10.89 1.23, 32 0" stroke="#1e1e1e" stroke-width="1" fill="none"></path></g><g stroke-linecap="round" transform="translate(614.96875 1076.05126953125) rotate(0 10.759765625 10.759765625)"><path d="M6.25 0.37 C7.99 -0.66, 11.06 -1.25, 13.2 -0.46 C15.33 0.33, 17.53 2.97, 19.07 5.13 C20.61 7.29, 22.54 10.31, 22.45 12.5 C22.37 14.69, 20.33 16.66, 18.55 18.28 C16.76 19.91, 14.15 21.95, 11.73 22.27 C9.31 22.6, 6.02 21.79, 4.04 20.24 C2.07 18.69, 0.29 15.14, -0.12 12.94 C-0.53 10.75, 0.33 9.24, 1.58 7.06 C2.84 4.89, 6.45 0.93, 7.42 -0.09 C8.39 -1.11, 7.53 0.65, 7.41 0.95 M14.56 1.94 C16.59 2.8, 17.75 3.39, 19.08 5.42 C20.42 7.45, 22.65 11.62, 22.59 14.13 C22.53 16.63, 20.64 18.96, 18.7 20.43 C16.77 21.89, 13.25 23.15, 10.99 22.91 C8.74 22.68, 7.15 20.62, 5.17 19.02 C3.19 17.42, -0.25 15.62, -0.89 13.31 C-1.54 11, 0.05 7.2, 1.31 5.17 C2.57 3.14, 4.59 1.73, 6.65 1.12 C8.72 0.5, 12.35 1.74, 13.69 1.46 C15.03 1.19, 14.56 -0.68, 14.69 -0.54" stroke="none" stroke-width="0" fill="#1e1e1e"></path><path d="M15.85 0.98 C17.71 2.09, 19.62 5.15, 20.56 7.43 C21.51 9.71, 22.23 12.73, 21.5 14.63 C20.77 16.54, 18.32 17.63, 16.19 18.86 C14.06 20.09, 10.92 22.28, 8.7 22.03 C6.49 21.78, 4.35 19.19, 2.89 17.37 C1.43 15.56, -0.1 13.33, -0.06 11.14 C-0.03 8.94, 1.73 6.07, 3.11 4.2 C4.5 2.34, 5.83 0.35, 8.26 -0.04 C10.69 -0.43, 16.14 1.42, 17.69 1.85 C19.23 2.29, 17.93 2.44, 17.53 2.57 M6.39 0.18 C8.32 -0.75, 10.72 -0.06, 13.07 0.61 C15.42 1.27, 19.03 2.22, 20.51 4.15 C22 6.08, 22.42 9.87, 21.98 12.18 C21.53 14.49, 19.49 16.6, 17.84 17.99 C16.18 19.39, 14.02 20.44, 12.02 20.56 C10.02 20.69, 7.59 20.14, 5.84 18.75 C4.09 17.36, 2.29 14.39, 1.51 12.22 C0.74 10.05, 0.6 7.42, 1.17 5.72 C1.74 4.03, 3.9 3.01, 4.92 2.04 C5.93 1.06, 7.15 0, 7.26 -0.12" stroke="#1e1e1e" stroke-width="1" fill="none"></path></g><g stroke-linecap="round" transform="translate(605.91015625 1097.30908203125) rotate(0 20.51953125 20.51953125)"><path d="M27.46 4.6 L40.4 21.57 L20.34 39.18 L5.75 25.02 L3.04 19.95 L21.54 -0.14 L22.19 0.97 L24.46 6.65" stroke="none" stroke-width="0" fill="#1e1e1e"></path><path d="M26.25 5.25 M26.25 5.25 C29.01 9.06, 32.16 11.66, 35.79 15.75 M26.25 5.25 C29.3 8.93, 32.73 12.78, 35.79 15.75 M35.79 15.75 C42.07 22.96, 42.59 21.4, 35.79 26.25 M35.79 15.75 C40.8 21.14, 42.86 19.8, 35.79 26.25 M35.79 26.25 C32.99 30.89, 29.31 32.17, 26.25 35.79 M35.79 26.25 C33.35 29.15, 30.59 30.53, 26.25 35.79 M26.25 35.79 C21.12 42.74, 19.65 41.05, 15.75 35.79 M26.25 35.79 C22.9 43.28, 22.62 43.19, 15.75 35.79 M15.75 35.79 C12.36 31.86, 9.66 29.67, 5.25 26.25 M15.75 35.79 C12.38 33.45, 9.87 29.66, 5.25 26.25 M5.25 26.25 C0.54 21.86, -0.07 21.51, 5.25 15.75 M5.25 26.25 C1.67 19.73, -1.15 19.5, 5.25 15.75 M5.25 15.75 C9.6 11.87, 10.98 9.92, 15.75 5.25 M5.25 15.75 C9.58 12.19, 13.2 7.95, 15.75 5.25 M15.75 5.25 C20.11 -1.72, 20.44 0.74, 26.25 5.25 M15.75 5.25 C20.42 2, 21.03 -2.2, 26.25 5.25" stroke="#1e1e1e" stroke-width="1" fill="none"></path></g><g stroke-linecap="round"><g transform="translate(629.67320738206 1053.3785909849516) rotate(0 5.424654095487824 -116.19681134779938)"><path d="M0.37 0.87 C1.81 -38.07, 7.97 -194.15, 9.43 -233.27 M-0.89 0.29 C0.85 -38.55, 9.68 -193.14, 11.74 -232.05" stroke="#e03131" stroke-width="1" fill="none"></path></g><g transform="translate(629.67320738206 1053.3785909849516) rotate(0 5.424654095487824 -116.19681134779938)"><path d="M21.89 -204.6 C16.13 -215.63, 11.95 -224.31, 11.39 -231.46 M20.31 -203.1 C18.11 -211.88, 15.45 -219.9, 11.29 -231.98" stroke="#e03131" stroke-width="1" fill="none"></path></g><g transform="translate(629.67320738206 1053.3785909849516) rotate(0 5.424654095487824 -116.19681134779938)"><path d="M1.4 -205.73 C3.19 -216.41, 6.55 -224.67, 11.39 -231.46 M-0.18 -204.23 C3.52 -212.81, 6.75 -220.51, 11.29 -231.98" stroke="#e03131" stroke-width="1" fill="none"></path></g></g><mask></mask><g transform="translate(708.8125 952.60009765625) rotate(0 102.66990661621094 37.5)"><text x="0" y="0" font-family="Virgil, Segoe UI Emoji" font-size="20px" fill="#e03131" text-anchor="start" style="white-space: pre;" direction="ltr" dominant-baseline="text-before-edge">1. The user requests</text><text x="0" y="25" font-family="Virgil, Segoe UI Emoji" font-size="20px" fill="#e03131" text-anchor="start" style="white-space: pre;" direction="ltr" dominant-baseline="text-before-edge">specific page from</text><text x="0" y="50" font-family="Virgil, Segoe UI Emoji" font-size="20px" fill="#e03131" text-anchor="start" style="white-space: pre;" direction="ltr" dominant-baseline="text-before-edge">server</text></g><g transform="translate(704.1484375 825.54345703125) rotate(0 104.3899154663086 50)"><text x="0" y="0" font-family="Virgil, Segoe UI Emoji" font-size="20px" fill="#e03131" text-anchor="start" style="white-space: pre;" direction="ltr" dominant-baseline="text-before-edge">2. Based on the url,</text><text x="0" y="25" font-family="Virgil, Segoe UI Emoji" font-size="20px" fill="#e03131" text-anchor="start" style="white-space: pre;" direction="ltr" dominant-baseline="text-before-edge">the server sends</text><text x="0" y="50" font-family="Virgil, Segoe UI Emoji" font-size="20px" fill="#e03131" text-anchor="start" style="white-space: pre;" direction="ltr" dominant-baseline="text-before-edge">the request data to</text><text x="0" y="75" font-family="Virgil, Segoe UI Emoji" font-size="20px" fill="#e03131" text-anchor="start" style="white-space: pre;" direction="ltr" dominant-baseline="text-before-edge">a specific controller</text></g><g transform="translate(461 513.44189453125) rotate(0 196.29983520507812 25)"><text x="0" y="0" font-family="Virgil, Segoe UI Emoji" font-size="20px" fill="#1e1e1e" text-anchor="start" style="white-space: pre;" direction="ltr" dominant-baseline="text-before-edge">- handles request flow</text><text x="0" y="25" font-family="Virgil, Segoe UI Emoji" font-size="20px" fill="#1e1e1e" text-anchor="start" style="white-space: pre;" direction="ltr" dominant-baseline="text-before-edge">&amp; tells server what to do with request</text></g><g transform="translate(463.62890625 568.98486328125) rotate(0 165.77987670898438 12.5)"><text x="0" y="0" font-family="Virgil, Segoe UI Emoji" font-size="20px" fill="#1e1e1e" text-anchor="start" style="white-space: pre;" direction="ltr" dominant-baseline="text-before-edge">- middleman between Model &amp; View</text></g><g transform="translate(462.89453125 600.07080078125) rotate(0 175.7298583984375 12.5)"><text x="0" y="0" font-family="Virgil, Segoe UI Emoji" font-size="20px" fill="#1e1e1e" text-anchor="start" style="white-space: pre;" direction="ltr" dominant-baseline="text-before-edge">- usually doesn't contain much code</text></g><g stroke-linecap="round" transform="translate(67.111328125 72.88134765625) rotate(0 210.951171875 81.177734375)"><path d="M32 0 M32 0 C127.9 0.2, 222.28 -0.33, 389.9 0 M32 0 C126.55 -1.41, 220.58 -1.42, 389.9 0 M389.9 0 C410.01 1.04, 421.29 9.78, 421.9 32 M389.9 0 C411.11 2.24, 420.83 12.87, 421.9 32 M421.9 32 C422.77 66.83, 422.88 103.09, 421.9 130.36 M421.9 32 C421.67 54.58, 422.46 75.96, 421.9 130.36 M421.9 130.36 C421.34 151.66, 411.31 160.8, 389.9 162.36 M421.9 130.36 C423.05 152.7, 409.47 163.68, 389.9 162.36 M389.9 162.36 C285.32 159.47, 180.29 160.56, 32 162.36 M389.9 162.36 C306.96 163.44, 222.37 163.22, 32 162.36 M32 162.36 C12.31 161.98, 0.38 151.95, 0 130.36 M32 162.36 C10.32 162.13, 0.58 153.36, 0 130.36 M0 130.36 C-1.16 108.43, 1.43 87.28, 0 32 M0 130.36 C0.61 110.44, 0.51 90.2, 0 32 M0 32 C0.63 9.6, 10.4 0.48, 32 0 M0 32 C0.81 10.17, 8.65 -1.65, 32 0" stroke="#1e1e1e" stroke-width="1" fill="none"></path></g><g stroke-linecap="round"><g transform="translate(411.31784077630914 498.68122589718735) rotate(0 -67.14732290332614 -115.68042575079677)"><path d="M0.57 0.72 C-21.83 -37.77, -111.95 -191.67, -134.42 -230.48 M-0.59 0.06 C-23.06 -38.8, -112.55 -193.55, -134.86 -232.08" stroke="#2f9e44" stroke-width="1" fill="none"></path></g><g transform="translate(411.31784077630914 498.68122589718735) rotate(0 -67.14732290332614 -115.68042575079677)"><path d="M-110.66 -211.22 C-117.14 -216.63, -126.71 -224.1, -134.76 -233.92 M-112.08 -213.38 C-119.21 -219.54, -128.53 -225.54, -134.06 -233.06" stroke="#2f9e44" stroke-width="1" fill="none"></path></g><g transform="translate(411.31784077630914 498.68122589718735) rotate(0 -67.14732290332614 -115.68042575079677)"><path d="M-128.42 -200.94 C-129.66 -209.49, -133.94 -220.02, -134.76 -233.92 M-129.84 -203.1 C-130.86 -212.96, -134.08 -222.49, -134.06 -233.06" stroke="#2f9e44" stroke-width="1" fill="none"></path></g></g><mask></mask><g transform="translate(10 273.84423828125) rotate(0 135.20989990234375 37.5)"><text x="270.4197998046875" y="0" font-family="Virgil, Segoe UI Emoji" font-size="20px" fill="#2f9e44" text-anchor="end" style="white-space: pre;" direction="ltr" dominant-baseline="text-before-edge">3. Asks a specific model</text><text x="270.4197998046875" y="25" font-family="Virgil, Segoe UI Emoji" font-size="20px" fill="#2f9e44" text-anchor="end" style="white-space: pre;" direction="ltr" dominant-baseline="text-before-edge">for information based on</text><text x="270.4197998046875" y="50" font-family="Virgil, Segoe UI Emoji" font-size="20px" fill="#2f9e44" text-anchor="end" style="white-space: pre;" direction="ltr" dominant-baseline="text-before-edge">the request. Getting data.</text></g><g transform="translate(95.271484375 95.99072265625) rotate(0 187.2198486328125 50)"><text x="0" y="0" font-family="Virgil, Segoe UI Emoji" font-size="20px" fill="#1e1e1e" text-anchor="start" style="white-space: pre;" direction="ltr" dominant-baseline="text-before-edge">- responsible for handling data logic.</text><text x="0" y="25" font-family="Virgil, Segoe UI Emoji" font-size="20px" fill="#1e1e1e" text-anchor="start" style="white-space: pre;" direction="ltr" dominant-baseline="text-before-edge">It interacts with the database</text><text x="0" y="50" font-family="Virgil, Segoe UI Emoji" font-size="20px" fill="#1e1e1e" text-anchor="start" style="white-space: pre;" direction="ltr" dominant-baseline="text-before-edge">&amp; handles validation, saving, updating,</text><text x="0" y="75" font-family="Virgil, Segoe UI Emoji" font-size="20px" fill="#1e1e1e" text-anchor="start" style="white-space: pre;" direction="ltr" dominant-baseline="text-before-edge">deletions, etc... of the data.</text></g><g transform="translate(469.265625 641.2939453125) rotate(0 171.16986083984375 37.5)"><text x="0" y="0" font-family="Virgil, Segoe UI Emoji" font-size="20px" fill="#1e1e1e" text-anchor="start" style="white-space: pre;" direction="ltr" dominant-baseline="text-before-edge">- Shouldn't interact w/ data logic.</text><text x="0" y="25" font-family="Virgil, Segoe UI Emoji" font-size="20px" fill="#1e1e1e" text-anchor="start" style="white-space: pre;" direction="ltr" dominant-baseline="text-before-edge">It only uses the Model for that.</text><text x="0" y="50" font-family="Virgil, Segoe UI Emoji" font-size="20px" fill="#1e1e1e" text-anchor="start" style="white-space: pre;" direction="ltr" dominant-baseline="text-before-edge">Never handling data logic.</text></g><g transform="translate(465.05859375 722.7509765625) rotate(0 189.11981201171875 25)"><text x="0" y="0" font-family="Virgil, Segoe UI Emoji" font-size="20px" fill="#1e1e1e" text-anchor="start" style="white-space: pre;" direction="ltr" dominant-baseline="text-before-edge">- responds based on what the model</text><text x="0" y="25" font-family="Virgil, Segoe UI Emoji" font-size="20px" fill="#1e1e1e" text-anchor="start" style="white-space: pre;" direction="ltr" dominant-baseline="text-before-edge">returns such as successes or failures</text></g><g stroke-linecap="round"><g transform="translate(345.7265672658656 262.5537109375) rotate(0 57.903581372380756 108.03231283361087)"><path d="M-0.78 -0.22 C18.48 35.82, 97.23 179.94, 116.58 216.03 M1.02 -1.38 C20.1 34.85, 97.22 180.94, 116.12 217.45" stroke="#1971c2" stroke-width="1" fill="none"></path></g><g transform="translate(345.7265672658656 262.5537109375) rotate(0 57.903581372380756 108.03231283361087)"><path d="M93.59 198.77 C102.13 204.69, 111.24 211.18, 116.91 219.28 M93.77 196.53 C99.98 202.59, 105.5 207.62, 116.6 216.63" stroke="#1971c2" stroke-width="1" fill="none"></path></g><g transform="translate(345.7265672658656 262.5537109375) rotate(0 57.903581372380756 108.03231283361087)"><path d="M111.77 189.25 C113.24 198.75, 115.29 208.93, 116.91 219.28 M111.95 187.01 C113.35 195.49, 114.15 202.99, 116.6 216.63" stroke="#1971c2" stroke-width="1" fill="none"></path></g></g><mask></mask><g transform="translate(453.8544921875 384.869140625) rotate(0 119.05989074707031 25)"><text x="0" y="0" font-family="Virgil, Segoe UI Emoji" font-size="20px" fill="#1971c2" text-anchor="start" style="white-space: pre;" direction="ltr" dominant-baseline="text-before-edge">4. Model sends response</text><text x="0" y="25" font-family="Virgil, Segoe UI Emoji" font-size="20px" fill="#1971c2" text-anchor="start" style="white-space: pre;" direction="ltr" dominant-baseline="text-before-edge">back to Controller</text></g><g stroke-linecap="round" transform="translate(977.7734375 56.4658203125) rotate(0 318.947265625 95.412109375)"><path d="M32 0 M32 0 C197.08 -2.19, 362.23 -2.36, 605.89 0 M32 0 C160.66 0.76, 288.55 1.31, 605.89 0 M605.89 0 C626.03 1.67, 639.04 12.08, 637.89 32 M605.89 0 C628.02 1.45, 635.75 10.58, 637.89 32 M637.89 32 C639.86 61.62, 637.78 89.69, 637.89 158.82 M637.89 32 C636.16 77.71, 637.59 124.78, 637.89 158.82 M637.89 158.82 C637.96 181.16, 625.31 190.23, 605.89 190.82 M637.89 158.82 C637.33 178.96, 629.11 190.05, 605.89 190.82 M605.89 190.82 C443.42 192.74, 281.24 192.33, 32 190.82 M605.89 190.82 C458.14 192.18, 310.61 192.06, 32 190.82 M32 190.82 C12.51 190.44, 1.04 178.45, 0 158.82 M32 190.82 C12.17 192.63, -1.92 181.58, 0 158.82 M0 158.82 C0.9 112.5, 2.36 67.92, 0 32 M0 158.82 C0.45 122.7, 0.04 88.83, 0 32 M0 32 C1.24 11.91, 9.35 1.54, 32 0 M0 32 C0.29 12.19, 10.47 2.01, 32 0" stroke="#1e1e1e" stroke-width="1" fill="none"></path></g><g stroke-linecap="round"><g transform="translate(906.3734917844138 554.5958341283758) rotate(0 152.34544973427478 -144.55665071206096)"><path d="M-0.24 -0.65 C50.95 -48.71, 255.38 -240.7, 306.52 -289.06 M-1.83 1.62 C49.32 -46.7, 254.59 -242.13, 305.94 -290.73" stroke="#f08c00" stroke-width="1" fill="none"></path></g><g transform="translate(906.3734917844138 554.5958341283758) rotate(0 152.34544973427478 -144.55665071206096)"><path d="M291.47 -262.71 C297.49 -269.19, 297.85 -277.11, 306.69 -290.31 M292.34 -264.64 C297.42 -272.42, 300.37 -280.24, 306.3 -291.47" stroke="#f08c00" stroke-width="1" fill="none"></path></g><g transform="translate(906.3734917844138 554.5958341283758) rotate(0 152.34544973427478 -144.55665071206096)"><path d="M277.34 -277.6 C286.77 -280.36, 290.64 -284.59, 306.69 -290.31 M278.21 -279.52 C287.3 -283.03, 294.33 -286.56, 306.3 -291.47" stroke="#f08c00" stroke-width="1" fill="none"></path></g></g><mask></mask><g transform="translate(1007.4404296875 484.544921875) rotate(0 180.23983764648438 37.5)"><text x="0" y="0" font-family="Virgil, Segoe UI Emoji" font-size="20px" fill="#f08c00" text-anchor="start" style="white-space: pre;" direction="ltr" dominant-baseline="text-before-edge">5. Needs to interact with the View</text><text x="0" y="25" font-family="Virgil, Segoe UI Emoji" font-size="20px" fill="#f08c00" text-anchor="start" style="white-space: pre;" direction="ltr" dominant-baseline="text-before-edge">to get Presentation (rendering data</text><text x="0" y="50" font-family="Virgil, Segoe UI Emoji" font-size="20px" fill="#f08c00" text-anchor="start" style="white-space: pre;" direction="ltr" dominant-baseline="text-before-edge">to the user)</text></g><g transform="translate(606.82421875 1147.0244140625) rotate(0 20.879974365234375 12.5)"><text x="0" y="0" font-family="Virgil, Segoe UI Emoji" font-size="20px" fill="#1e1e1e" text-anchor="start" style="white-space: pre;" direction="ltr" dominant-baseline="text-before-edge">user</text></g><g transform="translate(1001.26171875 64.9619140625) rotate(0 211.4097900390625 25)"><text x="0" y="0" font-family="Virgil, Segoe UI Emoji" font-size="20px" fill="#1e1e1e" text-anchor="start" style="white-space: pre;" direction="ltr" dominant-baseline="text-before-edge">- responsible for presenting the information</text><text x="0" y="25" font-family="Virgil, Segoe UI Emoji" font-size="20px" fill="#1e1e1e" text-anchor="start" style="white-space: pre;" direction="ltr" dominant-baseline="text-before-edge">send by the controller</text></g><g transform="translate(1003.234375 130.0205078125) rotate(0 287.31976318359375 25)"><text x="0" y="0" font-family="Virgil, Segoe UI Emoji" font-size="20px" fill="#1e1e1e" text-anchor="start" style="white-space: pre;" direction="ltr" dominant-baseline="text-before-edge">- template file that dynamically renders markup like HTML</text><text x="0" y="25" font-family="Virgil, Segoe UI Emoji" font-size="20px" fill="#1e1e1e" text-anchor="start" style="white-space: pre;" direction="ltr" dominant-baseline="text-before-edge">based on controller data</text></g><g stroke-linecap="round"><g transform="translate(1127.7647945347942 263.2158203125) rotate(0 -133.206950681918 109.9841100459732)"><path d="M0.44 0.88 C-44.12 37.35, -222.39 181.89, -266.85 218.34 M-0.79 0.3 C-45.04 36.97, -220.26 183.43, -264.69 219.67" stroke="#9c36b5" stroke-width="1" fill="none"></path></g><g transform="translate(1127.7647945347942 263.2158203125) rotate(0 -133.206950681918 109.9841100459732)"><path d="M-248.03 192.03 C-255.49 201.78, -258.57 209.66, -265.77 221.26 M-249.05 194.14 C-254.18 200.58, -258.76 208.62, -264.29 219.25" stroke="#9c36b5" stroke-width="1" fill="none"></path></g><g transform="translate(1127.7647945347942 263.2158203125) rotate(0 -133.206950681918 109.9841100459732)"><path d="M-234.96 207.85 C-246.83 212.23, -254.39 214.68, -265.77 221.26 M-235.97 209.96 C-244.95 211.62, -253.38 215, -264.29 219.25" stroke="#9c36b5" stroke-width="1" fill="none"></path></g></g><mask></mask><g transform="translate(737.28515625 270.6611328125) rotate(0 154.21986389160156 25)"><text x="308.4397277832031" y="0" font-family="Virgil, Segoe UI Emoji" font-size="20px" fill="#9c36b5" text-anchor="end" style="white-space: pre;" direction="ltr" dominant-baseline="text-before-edge">6. View sends final</text><text x="308.4397277832031" y="25" font-family="Virgil, Segoe UI Emoji" font-size="20px" fill="#9c36b5" text-anchor="end" style="white-space: pre;" direction="ltr" dominant-baseline="text-before-edge">presentation back to controller</text></g><g stroke-linecap="round"><g transform="translate(579.8515625 815.4541015625) rotate(0 15.007320056473816 130.50207962356507)"><path d="M-0.06 -1.2 C5.03 42.37, 26.12 218.45, 31.57 262.2 M-1.56 0.79 C3.26 43.93, 24.77 216.72, 30.4 260.32" stroke="#0c8599" stroke-width="1" fill="none"></path></g><g transform="translate(579.8515625 815.4541015625) rotate(0 15.007320056473816 130.50207962356507)"><path d="M14.7 232.94 C22.89 244.98, 26.68 253.62, 30.22 260.42 M16.22 232.9 C19.84 241.61, 24.7 249.09, 30.03 260.59" stroke="#0c8599" stroke-width="1" fill="none"></path></g><g transform="translate(579.8515625 815.4541015625) rotate(0 15.007320056473816 130.50207962356507)"><path d="M35.06 230.37 C35.45 243.38, 31.42 253.01, 30.22 260.42 M36.58 230.33 C34.26 239.87, 33.16 248.1, 30.03 260.59" stroke="#0c8599" stroke-width="1" fill="none"></path></g></g><mask></mask><g transform="translate(263.5708923339844 833.7978515625) rotate(0 150.4098663330078 25)"><text x="300.8197326660156" y="0" font-family="Virgil, Segoe UI Emoji" font-size="20px" fill="#0c8599" text-anchor="end" style="white-space: pre;" direction="ltr" dominant-baseline="text-before-edge">7. controller sends</text><text x="300.8197326660156" y="25" font-family="Virgil, Segoe UI Emoji" font-size="20px" fill="#0c8599" text-anchor="end" style="white-space: pre;" direction="ltr" dominant-baseline="text-before-edge">back the presentation to user</text></g></svg>